<svg id="Layer_1" data-name="Layer 1" xmlns="http://www.w3.org/2000/svg" viewBox="0 0 1920 619"><defs><style>.cls-1{opacity:0.9;}.cls-2{fill:#e6e7e8;}</style></defs><title>backg</title><g class="cls-1"><path class="cls-2" d="M1791.32,134,1339.48,2.53a.61.61,0,0,0-.12,0l-.26-.11-.15,0-.13,0-.24,0h-.36l-.18.06-.19.07-.11,0-.07,0-.12.08-.12.07L950,125.34,734,94.56A1.75,1.75,0,0,0,732,96L701.75,247.84,587.82,330.75,511.55,195.24s-.06-.07-.08-.11l-.17-.22-.13-.12a1.46,1.46,0,0,0-.21-.16,1,1,0,0,0-.17-.1l-.23-.1-.19-.05-.15,0L68.09,137h0a2,2,0,0,0-.54,0l-.15.05a1.47,1.47,0,0,0-.28.08l-.08.05-.16.11a1.39,1.39,0,0,0-.27.21l-.13.15a2.49,2.49,0,0,0-.19.3s0,.07-.06.1a.64.64,0,0,1,0,.07,1.8,1.8,0,0,0-.1.4c0,.05,0,.09,0,.13a.43.43,0,0,0,0,.05l-6.19,203L4.46,619H8.1l55-275L386.83,398.1,237.07,619h4.31L389.45,400.6l58.61,148.48-20.73,50.23L415,619h4.22l10.35-16.48L459.28,619h7.38l-33.61-18.62L463.41,588l12.25,31h3.84l-12.78-32.38,67.35-27.52-15,59.9h3.69L538,558.22l136.43,29.12L672,619h3.59l2.32-30.9,101,21.56,8.63,9.34h4.87l-7.44-8,37.68,8h17.13l-59-12.6L686.18,504l293-43.62,45.94,141.8,5.44,16.81h3.76L982.77,459.85l154.67-23-51.5,127.8L1064,619h3.85l73.65-182.78,37.18-5.54,7.35,31.36-91.49,157h4.14l.88-1.51,87.66-150.38,16.34,69.75,15.09,64.38L1199.15,619h5.32l15.15-13.78,3.23,13.78h3.67l-3.87-16.53,28.86-26.24-16,42.77h3.82l11.06-29.57,5.6-15L1277.59,619h4l-23.31-48,10.56-3.64L1461.11,501l62.15,27.24L1313.53,619h9l202.82-87.74L1508.47,619h3.64l17.15-89.18,254.17-44.88.15-.05.23-.07.18-.09.21-.14.15-.14a1.37,1.37,0,0,0,.17-.17l.12-.18.07-.11,57.66-114.41L1905.09,348l-22.18,271h3.58l22.34-273L1920,330.28v-6.17L1908.73,340l-1.34-48.77-.51-18.46,13.12-4.22v-3.76l-15.49,5h0l-14,4.19L1920,215.54V207.6l-34.16,67.77L1714.25,327l36.83-23L1920,198.71V194.5l-38.18,23.8L1701.19,330.9l-18.41,5.54L1792,138l128,49.39v-3.83l-128.13-49.46A2.15,2.15,0,0,0,1791.32,134ZM1339.39,8.18l175.44,181.13L1662.62,342.5,1637,350.21l-171.37,6.53L1169.16,368l65.14-138.38Zm333.55,345.26,20.59,24.77-47.08,7.64Zm-3.34-9.31,5.83-1.75-2.73,4.95Zm26.58,37.27,15.09,18.16,7.4,8.89L1592.4,452,1643,390Zm-55.06,5.31-245.64,39.86,242.09-72.81,31.46-1.19ZM1301.73,427.3l-127.55-55.89,163.62-6.23,285.57-10.88-254.66,76.59Zm63.56,7-12.64,15.33L1311,431.38Zm285.9-84.61,14.22-4.28,3.48,3.6Zm-317-340.4-103.08,219-65.69,138-213-238.89Zm-249,272.31,77.48,86.91L960,388.16,952.09,141l-.28-9ZM956.42,387,788.36,293.92l-81.14-45L948.16,130ZM556.42,459l-98,106.52-6.47-16.39,45.94-111.33Zm-57.21-24.51,19.29-46.76,31.22,57.19,5.33,9.78ZM521,384.77l82.22-19.41,17.47,31.05-61,59.25Zm102.35,9.06-16.51-29.32,61.7-14.57ZM664,359.36,631.6,408.54l-6.46-11.49Zm-54.86,53.28,13.4-13,6.9,12.27-37,56.29-29.48-10.67Zm22.27,2.76,46.77,83.1-1,.38-81.34-29.44Zm2.21-3.36,41.7-63.38,276.21,42.23-270,106.29ZM735.2,98.33l208.69,29.75L705.83,245.66ZM704.45,251.52,948.7,386.85l-272-41.59,13.45-45.43Zm-4.29,1.89L673,345.21l-68,16.05-15.41-27.37ZM601.38,362.12l-58.26,13.75-16.61,3.92L586.68,336ZM63.49,340.47l6.05-198L383.4,393.9Zm325.9,53.65L74,141.38l433.11,56.16-41.91,70ZM510,199.68l75,133.19-67.68,49.25,0,0a1.2,1.2,0,0,0-.23.22.76.76,0,0,0-.09.09l0,.07a.75.75,0,0,0-.07.12,1.08,1.08,0,0,0-.11.18h0s0,0,0,0l-20.78,50.36-103.33-37.4ZM393,399.82l101.49,36.74L450,544.32Zm57,154.05,5.74,14.55L434.4,591.54Zm-14.28,41.58,21.48-23.34,5,12.54Zm99.46-40.64L465.41,583.3l-5.57-14.11L556,464.77,540.65,531Zm6.37-11.7,19.11-82.62,29.73,10.77L540.65,546.8Zm49.71-66.67,2.59-3.93,78.33,28.35L541.25,552.39Zm83.47,107.31L542.83,555.61l49.39-19.45,85-33.46,3.46,1.26Zm100.1,21.36L678.21,584.5,684,507ZM683.53,500.79l-.27-.47L957.19,392.48l20.88,64.46ZM1139,433,981.65,456.41l-21-64.72L1163.57,372Zm4.1-.61,22.78-56.55,12,51.36ZM1168.88,373l122.7,53.76-81.28-4.35a1.29,1.29,0,0,0-.28,0h-.16l-28.41,4.23Zm13.39,57.15,24.52-3.65-18.1,31.05Zm39.44,168.34-31.83-135.87,19.83-34,44,140.8Zm34.78-32.23L1218.2,443.79l-5.52-17.68,88.21,4.72,49.4,21.65Zm53.36-16.85-48.66,16.77L1353.69,454l102.59,44.95Zm46.21-98.31,13.82-16.76L1470.44,418l167.27-27.13L1586,454.2l-124.7,43Zm171.16,75-61.12-26.78,115.57-39.84Zm5-.41,55.92-68.43,133-45.86L1779.77,482Zm250.57-45.74-58-69.8,112.79-38.89Zm57.08-113.26L1722.28,407.2l-22-26.46,144.26-23.41Zm4.84-1.67,4.23-8.38,37.91-6.15Zm43.67-86.66,15-4.51,1.93,70-54.38,8.83Zm-185.65,55.83,180.94-54.41-37.11,73.62-148.89,24.16-22-26.49Zm-13.06,3.93-11.83,7.38,2.52-4.58Zm-11.74-.2-11.09,3.33-72.47-74.63L1347.47,10.74l441.35,125.71Z"/></g></svg>